<svg version="1.1" xmlns="http://www.w3.org/2000/svg" xmlns:xlink="http://www.w3.org/1999/xlink" x="0px" y="0px"
	 width="800px" height="722px" viewBox="0 30 612 722" style="enable-background:new 0 0 612 792;" xml:space="preserve"
	 xmlns:sodipodi="http://sodipodi.sourceforge.net/DTD/sodipodi-0.dtd"
	 xmlns:inkscape="http://www.inkscape.org/namespaces/inkscape">
<style type="text/css">
	.outline { fill: #a5acb0; stroke: #fff; stroke-miterlimit: 10; }
    .dark-fill { fill: #636466; stroke: #fff; stroke-miterlimit: 10; }
    .fill { fill: #fff; stroke: #fff; stroke-miterlimit: 10; }
    .room { fill: #00704a; stroke: #fff; stroke-miterlimit: 10; }
    .room-group:hover > .room { fill: #85c446; }
    .door { fill: none; stroke: #fff; stroke-width: 2; stroke-linecap: square; }
    .label { fill: #fff; font-family: "ArialMT", Arial, sans-serif; font-size: 10px; text-anchor: middle; dominant-baseline: middle; }
</style>
<g id="outline">
  <polygon class="outline" points="146.9,360.2 204.3,296.5 217.8,308.6 237.2,287 226.8,277.7 264.6,235.6 275.2,244.9 309.3,207
  		309.3,181.1 343.7,181.1 343.7,190.8 369.8,190.8 369.8,173.6 423.9,173.6 423.9,190.8 451.3,190.8 451.3,187.1 478.3,187.1
  		478.3,188.9 559.8,188.9 559.8,184.6 588.5,184.6 588.5,188.9 615,188.9 615,173.6 669.3,173.6 669.3,184.6 696.3,184.6
  		696.3,188.9 711.5,188.9 711.5,184.6 732.5,184.6 732.5,244.3 741,244.3 741,275.9 737.7,275.9 737.7,365.6 741,365.6 741,396.6
  		711.5,396.6 711.5,425.1 752,425.1 752,451.3 758.5,451.3 758.5,531.5 729.8,531.5 729.8,550.3 748.7,550.3 748.7,600.6 735,600.6
  		735,606.4 695,606.4 695,600.6 666.8,600.6 666.8,606.4 627,606.4 627,600.6 614.8,600.6 614.8,550.3 633,550.3 633,531.5
  		604.5,531.5 604.5,451.3 611,451.3 611,396.6 617.7,396.6 617.7,336.6 621.3,336.6 621.3,315.6 593.5,315.6 593.5,331.3 539,331.3
  		539,315.6 513.3,315.6 513.3,325.9 478.3,325.9 478.3,315.6 451.3,315.6 451.3,319.9 423.9,319.9 423.9,306.6 400.3,306.6
  		365.5,345.3 361.2,341.4 323.5,383.3 320.7,380.8 281.9,423.8 284.7,426.3 246.3,469 250.6,472.9 215.5,511.8 219.7,515.6
  		179,560.7 156.6,540.5 144.1,554.4 158.2,566.8 126.4,602.1 117.1,593.7 114.3,596.8 82.7,568.4 85.5,565.3 63.7,545.6 60.9,548.8
  		28.1,519.3 30.9,516.1 23.5,509.4 55.3,474.1 69.2,486.7 81.5,473 59.4,453 110.1,396.7 115.3,401.5 131.7,383.3 155,404.3
  		173.3,384 	"/>
</g>
<g id="outline">
  <polygon class="outline" points="146.9,360.2 204.3,296.5 217.8,308.6 237.2,287 226.8,277.7 264.6,235.6 275.2,244.9 309.3,207
  		309.3,181.1 343.7,181.1 343.7,190.8 369.8,190.8 369.8,173.6 423.9,173.6 423.9,190.8 451.3,190.8 451.3,187.1 478.3,187.1
  		478.3,188.9 559.8,188.9 559.8,184.6 588.5,184.6 588.5,188.9 615,188.9 615,173.6 669.3,173.6 669.3,184.6 696.3,184.6
  		696.3,188.9 711.5,188.9 711.5,184.6 732.5,184.6 732.5,244.3 741,244.3 741,275.9 737.7,275.9 737.7,365.6 741,365.6 741,396.6
  		711.5,396.6 711.5,425.1 752,425.1 752,451.3 758.5,451.3 758.5,531.5 729.8,531.5 729.8,550.3 748.7,550.3 748.7,600.6 735,600.6
  		735,606.4 695,606.4 695,600.6 666.8,600.6 666.8,606.4 627,606.4 627,600.6 614.8,600.6 614.8,550.3 633,550.3 633,531.5
  		604.5,531.5 604.5,451.3 611,451.3 611,396.6 617.7,396.6 617.7,336.6 621.3,336.6 621.3,315.6 593.5,315.6 593.5,331.3 539,331.3
  		539,315.6 513.3,315.6 513.3,325.9 478.3,325.9 478.3,315.6 451.3,315.6 451.3,319.9 423.9,319.9 423.9,306.6 400.3,306.6
  		365.5,345.3 361.2,341.4 323.5,383.3 320.7,380.8 281.9,423.8 284.7,426.3 246.3,469 250.6,472.9 215.5,511.8 219.7,515.6
  		179,560.7 156.6,540.5 144.1,554.4 158.2,566.8 126.4,602.1 117.1,593.7 114.3,596.8 82.7,568.4 85.5,565.3 63.7,545.6 60.9,548.8
  		28.1,519.3 30.9,516.1 23.5,509.4 55.3,474.1 69.2,486.7 81.5,473 59.4,453 110.1,396.7 115.3,401.5 131.7,383.3 155,404.3
  		173.3,384 	"/>
<g id="fill">
<g id="Warning">
	<g>
		<path class="st1" d="M222.7,412.2c0,2.7-0.9,5-2.7,6.7c-1.8,1.7-4.1,2.6-6.8,2.6h-33.8c-2.7,0-5-0.9-6.7-2.6
			c-1.7-1.7-2.6-4-2.6-6.7V299.6c0-2.7,0.9-5,2.6-6.7c1.7-1.7,4-2.6,6.7-2.6h33.8c2.7,0,5,0.9,6.8,2.6c1.8,1.7,2.7,4,2.7,6.7v30.5
			h-11.7v-29.5h-29.2v110.6h29.2v-32.3h11.7V412.2z"/>
		<path class="st1" d="M253.3,421.5h-11V290.3h11V421.5z"/>
		<path class="st1" d="M318.4,421.5h-11v-2.3c-4.4,0.6-8.8,1.2-13.3,1.8c-5.5,0.7-9.9,1-13.2,1c-6.1,0-9.1-3-9.1-9.1v-29.8
			c0-6.3,3.2-9.4,9.5-9.4h26.3v-24.6h-24v13.9h-10.8v-13.8c0-6.3,3.1-9.5,9.4-9.5H309c6.3,0,9.4,3.2,9.4,9.5V421.5z M307.6,411.4
			v-28.9h-24.9v29.4L307.6,411.4z"/>
		<path class="st1" d="M380.7,412c0,6.3-3.2,9.5-9.5,9.5h-25.6c-6.3,0-9.5-3.2-9.5-9.5v-18.5h11v18.4h22.6v-16.3l-29.2-23.9
			c-2.8-2.2-4.2-5.1-4.2-8.7v-13.6c0-6.3,3.2-9.5,9.5-9.5H371c6.3,0,9.5,3.2,9.5,9.5v16.3h-10.8v-16.1h-22.6v14.3l29.4,23.9
			c2.7,2.2,4.1,5.1,4.1,8.9V412z"/>
		<path class="st1" d="M442.3,412c0,6.3-3.2,9.5-9.5,9.5h-25.6c-6.3,0-9.5-3.2-9.5-9.5v-18.5h11v18.4h22.6v-16.3l-29.2-23.9
			c-2.8-2.2-4.2-5.1-4.2-8.7v-13.6c0-6.3,3.2-9.5,9.5-9.5h25.2c6.3,0,9.5,3.2,9.5,9.5v16.3h-10.8v-16.1h-22.6v14.3l29.4,23.9
			c2.7,2.2,4.1,5.1,4.1,8.9V412z"/>
		<path class="st1" d="M471.8,322.1h-11.3V308h11.3V322.1z M471.7,421.5h-11v-81.6h11V421.5z"/>
		<path class="st1" d="M521.5,300.1h-15.8v39.8h13.9v9.8h-13.9v71.8h-11v-71.8h-9.5v-9.8h9.5v-40.2c0-6.3,3.1-9.5,9.4-9.5h17.4
			V300.1z"/>
		<path class="st1" d="M543.3,322.1H532V308h11.3V322.1z M543.1,421.5h-11v-81.6h11V421.5z"/>
		<path class="st1" d="M607.7,412c0,6.3-3.1,9.5-9.4,9.5h-26.8c-6.3,0-9.4-3.2-9.4-9.5v-62.7c0-6.3,3.1-9.5,9.4-9.5h26.8
			c6.3,0,9.4,3.2,9.4,9.5v29.4l-3.8,3.9h-31v29.5h24v-14.9h10.8V412z M596.9,373.8v-24.6h-24v24.6H596.9z"/>
		<path class="st1" d="M672.5,421.5h-11.1v-2.3c-12,1.8-18.6,2.8-19.9,2.8c-4.8,0-8.6-1.6-11.5-4.8c-2.9-3.2-4.4-7.2-4.4-12v-47.7
			c0-5,1.6-9.2,4.9-12.5c3.3-3.3,7.4-5,12.4-5h18.4v-49.7h11.1V421.5z M661.5,411.4v-61.6H646c-6.2,0-9.2,3.2-9.2,9.5v43.6
			c0,6.3,3.1,9.4,9.2,9.4C647.5,412.2,652.6,411.9,661.5,411.4z"/>
	</g>
</g>
</g>
</g>
</svg>